ply
format ascii 1.0
comment Created by Blender 2.56 (sub 0) - www.blender.org, source file: ''
element vertex 52
property float x
property float y
property float z
property float nx
property float ny
property float nz
property float s
property float t
element face 80
property list uchar uint vertex_indices
end_header
0.262869 -0.809012 -0.525738 0.262856 -0.808985 -0.525712 0.343064 1.000000 
0.425323 -0.309011 -0.850654 0.425306 -0.309000 -0.850642 0.270477 0.842580 
0.723600 -0.525720 -0.447215 0.723594 -0.525712 -0.447188 0.150291 0.937358 
-0.162456 -0.499995 -0.850654 -0.162450 -0.499985 -0.850642 0.381774 0.831028 
-0.276385 -0.850640 -0.447215 -0.276376 -0.850642 -0.447188 0.518862 0.899102 
0.000000 0.000000 -1.000000 0.000000 0.000000 -1.000000 0.319593 0.773869 
0.850648 0.000000 -0.525736 0.850642 0.000000 -0.525712 0.172667 0.785943 
0.425323 0.309011 -0.850654 0.425306 0.309000 -0.850642 0.258471 0.750541 
0.723600 0.525720 -0.447215 0.723594 0.525712 -0.447188 0.207813 0.709140 
-0.688189 -0.499997 -0.525736 -0.688162 -0.499985 -0.525712 0.465866 0.755509 
-0.525730 0.000000 -0.850652 -0.525712 0.000000 -0.850642 0.374621 0.738484 
-0.894425 0.000000 -0.447215 -0.894406 0.000000 -0.447188 0.415695 0.687562 
-0.688189 0.499997 -0.525736 -0.688162 0.499985 -0.525712 0.357339 0.675079 
-0.162456 0.499995 -0.850654 -0.162450 0.499985 -0.850642 0.313431 0.714512 
-0.276385 0.850640 -0.447215 -0.276376 0.850642 -0.447188 0.308248 0.664578 
0.262869 0.809012 -0.525738 0.262856 0.808985 -0.525712 0.262361 0.684938 
0.951058 -0.309013 0.000000 0.951048 -0.309000 0.000000 0.000000 0.801345 
0.951058 0.309013 0.000000 0.951048 0.309000 0.000000 0.127283 0.683662 
0.894425 0.000000 0.447215 0.894406 0.000000 0.447188 0.000000 0.598645 
0.000000 -1.000000 0.000000 0.000000 -1.000000 0.000000 0.783930 0.902498 
-0.276385 -0.850640 -0.447215 -0.276376 -0.850642 -0.447188 0.734282 0.993062 
0.262869 -0.809012 -0.525738 0.262856 -0.808985 -0.525712 0.848844 1.000000 
0.587786 -0.809017 0.000000 0.587756 -0.809015 0.000000 0.887211 0.889328 
0.276385 -0.850640 0.447215 0.276376 -0.850642 0.447188 0.826506 0.824835 
0.723600 -0.525720 -0.447215 0.723594 -0.525712 -0.447188 0.958000 0.964534 
-0.951058 -0.309013 0.000000 -0.951048 -0.309000 0.000000 0.489274 0.646087 
-0.587786 -0.809017 0.000000 -0.587756 -0.809015 0.000000 0.638015 0.735121 
-0.723600 -0.525720 0.447215 -0.723594 -0.525712 0.447188 0.596382 0.536741 
-0.587786 0.809017 0.000000 -0.587756 0.809015 0.000000 0.333406 0.621134 
-0.951058 0.309013 0.000000 -0.951048 0.309000 0.000000 0.399048 0.624292 
-0.723600 0.525720 0.447215 -0.723594 0.525712 0.447188 0.363311 0.569490 
0.587786 0.809017 0.000000 0.587756 0.809015 0.000000 0.211111 0.643799 
0.000000 1.000000 0.000000 0.000000 1.000000 0.000000 0.274705 0.627227 
0.276385 0.850640 0.447215 0.276376 0.850642 0.447188 0.234831 0.582826 
0.688189 -0.499997 0.525736 0.688162 -0.499985 0.525712 0.906601 0.787030 
0.951058 -0.309013 0.000000 0.951048 -0.309000 0.000000 1.000000 0.857721 
0.894425 0.000000 0.447215 0.894406 0.000000 0.447188 1.000000 0.742947 
-0.262869 -0.809012 0.525738 -0.262856 -0.808985 0.525712 0.739488 0.808340 
-0.587786 -0.809017 0.000000 -0.587756 -0.809015 0.000000 0.666819 0.900208 
-0.723600 -0.525720 0.447215 -0.723594 -0.525712 0.447188 0.638015 0.789106 
-0.850648 0.000000 0.525736 -0.850642 0.000000 0.525712 0.443438 0.542770 
-0.262869 0.809012 0.525738 -0.262856 0.808985 0.525712 0.297993 0.565771 
0.688189 0.499997 0.525736 0.688162 0.499985 0.525712 0.150924 0.573132 
0.162456 -0.499995 0.850654 0.162450 -0.499985 0.850642 0.815303 0.736978 
0.525730 0.000000 0.850652 0.525712 0.000000 0.850642 0.911394 0.669996 
0.000000 0.000000 1.000000 0.000000 0.000000 1.000000 0.802238 0.634529 
-0.425323 -0.309011 0.850654 -0.425306 -0.309000 0.850642 0.705478 0.696254 
-0.425323 0.309011 0.850654 -0.425306 0.309000 0.850642 0.346603 0.486692 
-0.425323 -0.309011 0.850654 -0.425306 -0.309000 0.850642 0.477246 0.372742 
0.000000 0.000000 1.000000 0.000000 0.000000 1.000000 0.275703 0.351032 
0.162456 0.499995 0.850654 0.162450 0.499985 0.850642 0.234178 0.498362 
0.525730 0.000000 0.850652 0.525712 0.000000 0.850642 0.082914 0.413673 
3 0 1 2
3 1 0 3
3 4 3 0
3 3 5 1
3 6 2 1
3 1 7 6
3 8 6 7
3 1 5 7
3 9 3 4
3 3 9 10
3 11 10 9
3 10 5 3
3 12 10 11
3 10 12 13
3 14 13 12
3 13 5 10
3 15 13 14
3 13 15 7
3 8 7 15
3 7 5 13
3 16 2 6
3 6 17 16
3 18 16 17
3 17 6 8
3 19 20 21
3 21 22 19
3 23 19 22
3 22 21 24
3 25 11 9
3 9 26 25
3 27 25 26
3 26 9 4
3 28 14 12
3 12 29 28
3 30 28 29
3 29 12 11
3 31 8 15
3 15 32 31
3 33 31 32
3 32 15 14
3 34 35 36
3 35 34 22
3 23 22 34
3 22 24 35
3 37 19 23
3 19 37 38
3 39 38 37
3 38 20 19
3 40 25 27
3 25 40 29
3 30 29 40
3 29 11 25
3 41 28 30
3 28 41 32
3 33 32 41
3 32 14 28
3 42 31 33
3 31 42 17
3 18 17 42
3 17 8 31
3 43 23 34
3 34 44 43
3 45 43 44
3 44 34 36
3 46 39 37
3 37 43 46
3 45 46 43
3 43 37 23
3 47 30 40
3 40 48 47
3 49 47 48
3 48 40 27
3 50 33 41
3 41 47 50
3 49 50 47
3 47 41 30
3 51 18 42
3 42 50 51
3 49 51 50
3 50 42 33
